<svg width="116" height="37" viewBox="0 0 116 37" fill="none" xmlns="http://www.w3.org/2000/svg">
<path d="M36.5289 18.5219V18.6042C36.5113 22.6014 33.2131 25.8543 29.1771 25.8543H23.5885L35.9103 13.7905C36.3211 15.3341 36.529 16.9246 36.5289 18.5219Z" fill="white"/>
<path d="M16.847 27.4724L34.0915 27.6573C33.2883 29.0397 32.3092 30.3121 31.1789 31.4428L31.1216 31.4983C28.2848 34.3129 23.6542 34.2796 20.797 31.4262L16.847 27.4724Z" fill="white"/>
<path d="M31.2344 5.66571C34.0499 8.50435 34.0185 13.1368 31.165 15.9912L27.2113 19.9422L27.3962 2.69946C28.7792 3.50059 30.0518 4.4788 31.1817 5.60931L31.2344 5.66571Z" fill="white"/>
<path d="M25.5922 7.60955V13.2009L13.5294 0.878159C15.0741 0.466766 16.6659 0.259125 18.2645 0.260505H18.3458C22.3458 0.278073 25.5922 3.57627 25.5922 7.60955Z" fill="white"/>
<path d="M10.9348 23.8452L23.0005 36.1679C21.4555 36.5794 19.8633 36.7871 18.2644 36.7856H18.1849C14.1868 36.7698 10.9348 33.4735 10.9348 29.4356V23.8452Z" fill="white"/>
<path d="M19.6819 9.57608L2.43738 9.39115C3.24114 8.00969 4.22013 6.73794 5.35 5.60752L5.40825 5.55019C8.2469 2.73743 12.8766 2.77071 15.73 5.62416L19.6819 9.57608Z" fill="white"/>
<path d="M12.9404 11.1941L0.61674 23.2579C0.206378 21.7127 -0.00094662 20.1206 3.24909e-06 18.5219V18.4423C0.0184961 14.4451 3.31484 11.1941 7.34998 11.1941H12.9404Z" fill="white"/>
<path d="M9.31854 17.1045L9.13361 34.3491C7.75072 33.5477 6.47818 32.5695 5.34813 31.4392L5.29265 31.3809C2.4799 28.5423 2.50948 23.9117 5.36385 21.0573L9.31854 17.1045Z" fill="white"/>
<path d="M53.7235 19.1722C53.5621 18.9683 53.3599 18.8005 53.1298 18.6795C52.8997 18.5585 52.6468 18.4869 52.3874 18.4694C51.4415 18.4214 49.8696 19.1666 47.9066 20.8153L60.5806 7.67611H56.8081L47.2436 17.591V0.260498H44.527V28.5138H47.2436V21.6132C50.11 19.3238 51.2917 21.0585 51.2917 21.0585L57.3277 28.5009L61.2861 28.4676L53.7235 19.1722Z" fill="white"/>
<path d="M74.4308 12.9001C72.9798 11.8941 71.1955 11.3911 69.0781 11.3911C67.1055 11.3911 65.4273 11.8463 64.0434 12.7568C62.6595 13.6673 61.9235 14.9285 61.8354 16.5404L64.4715 16.5081C64.6626 15.5132 65.1974 14.7879 66.0758 14.3324C66.9542 13.8769 67.9762 13.6491 69.1419 13.6491C70.5393 13.6491 71.7041 13.9508 72.6361 14.5543C73.5681 15.1578 74.0342 16.0316 74.0342 17.1757V18.4147L68.6019 18.4461C66.1239 18.4461 64.2814 18.9279 63.0744 19.8913C62.1222 20.6543 61.4873 21.7437 61.2926 22.9482L61.288 22.9408V22.9658C61.2797 23.0249 61.275 23.085 61.2695 23.1442C61.2422 23.3589 61.2293 23.5751 61.2307 23.7915C61.2274 24.3655 61.3318 24.9351 61.5386 25.4706C61.712 25.9016 61.9737 26.2916 62.3069 26.6153C62.4675 26.8 62.6452 26.9691 62.8377 27.1202C63.8825 27.9348 65.2538 28.2344 66.5797 28.2196C68.2792 28.1992 69.9805 27.6842 71.3638 26.6958C72.5919 25.8199 73.5233 24.5898 74.0332 23.1701V27.6722H76.6065V16.8539C76.6071 15.2271 75.8819 13.9092 74.4308 12.9001ZM72.0961 24.6856C70.8016 25.8821 69.3404 26.4803 67.7124 26.4803C66.7378 26.4803 65.9013 26.2526 65.2029 25.797C64.8669 25.5872 64.5853 25.3009 64.3811 24.9615C64.1769 24.6221 64.0558 24.2393 64.0277 23.8442C63.9426 22.9121 64.3026 22.1179 65.1077 21.4614C65.9127 20.8049 67.2257 20.4658 69.0466 20.4443H74.0332C74.0332 22.0753 73.3875 23.4891 72.0961 24.6856Z" fill="white"/>
<path d="M113.824 12.9001C112.374 11.8941 110.589 11.3911 108.471 11.3911C106.499 11.3911 104.82 11.8463 103.436 12.7568C102.051 13.6673 101.316 14.9285 101.229 16.5404L103.865 16.5081C104.055 15.5132 104.59 14.7879 105.469 14.3324C106.348 13.8769 107.37 13.6491 108.535 13.6491C109.932 13.6491 111.097 13.9508 112.029 14.5543C112.962 15.1578 113.428 16.0316 113.427 17.1757V18.4147L107.994 18.4461C105.518 18.4461 103.675 18.9279 102.468 19.8913C101.515 20.654 100.88 21.7434 100.685 22.9482V22.9408V22.9658C100.677 23.0249 100.672 23.085 100.667 23.1442C100.639 23.3589 100.626 23.5751 100.628 23.7915C100.624 24.3656 100.728 24.9353 100.936 25.4706C101.109 25.9018 101.371 26.2918 101.704 26.6153C101.864 26.7998 102.042 26.9688 102.234 27.1202C103.279 27.9348 104.651 28.2344 105.976 28.2196C107.675 28.1992 109.378 27.6842 110.761 26.6958C111.987 25.8191 112.915 24.589 113.423 23.1701V27.6722H115.996V16.8539C115.999 15.2271 115.275 13.9092 113.824 12.9001ZM111.489 24.6856C110.194 25.8821 108.733 26.4803 107.106 26.4803C106.131 26.4803 105.294 26.2526 104.595 25.797C104.259 25.5871 103.978 25.3008 103.774 24.9614C103.57 24.6221 103.448 24.2392 103.42 23.8442C103.335 22.9121 103.695 22.1179 104.5 21.4614C105.305 20.8049 106.618 20.4658 108.439 20.4443H113.423C113.423 22.0753 112.778 23.4891 111.489 24.6856Z" fill="white"/>
<path d="M91.5885 20.5561C90.6879 19.7405 89.1576 19.1105 86.9976 18.6661C85.0281 18.2642 83.672 17.8987 82.9292 17.5695C82.1864 17.2403 81.8165 16.7268 81.8196 16.029C81.8196 15.2671 82.2222 14.6529 83.0272 14.1862C83.8323 13.7196 84.764 13.4869 85.8224 13.4881C87.8566 13.4881 90.0274 14.2278 92.3346 15.7073V13.0397C90.1531 11.7686 87.9824 11.1331 85.8224 11.1331C84.065 11.1331 82.519 11.5726 81.1844 12.4516C79.8498 13.3306 79.1829 14.5219 79.1835 16.0253C79.1835 17.2958 79.7022 18.2913 80.7396 19.0119C81.7771 19.7325 83.3866 20.3252 85.5681 20.79C87.3256 21.1722 88.5584 21.58 89.2667 22.0133C89.975 22.4466 90.3297 22.9814 90.3309 23.6176C90.3513 24.3375 90.007 24.941 89.2981 25.428C88.5892 25.915 87.6202 26.1588 86.3911 26.1594C84.9922 26.1635 83.6095 25.8599 82.3411 25.2699C81.0596 24.6775 80.0166 23.9686 79.2121 23.1432V26.1289C81.5842 27.7174 83.9882 28.5117 86.4243 28.5117C88.3088 28.5117 89.8652 28.0827 91.0938 27.2246C92.3223 26.3665 92.9366 25.1543 92.9366 23.588C92.9466 23.0149 92.8312 22.4465 92.5983 21.9227C92.3654 21.3989 92.0207 20.9325 91.5885 20.5561Z" fill="white"/>
<path d="M96.8718 5.22829C96.6213 5.22731 96.373 5.27593 96.1413 5.37134C95.9096 5.46675 95.699 5.60707 95.5218 5.78421C95.3446 5.96136 95.2041 6.17182 95.1086 6.40347C95.0131 6.63513 94.9644 6.8834 94.9652 7.13397C94.9596 7.38275 95.0061 7.62996 95.1016 7.85974C95.1971 8.08951 95.3397 8.29676 95.52 8.46822C95.884 8.81487 96.3673 9.00822 96.87 9.00822C97.3726 9.00822 97.856 8.81487 98.22 8.46822C98.4002 8.29666 98.5426 8.08938 98.6381 7.85963C98.7336 7.62989 98.7802 7.38273 98.7747 7.13397C98.7758 6.88341 98.7273 6.6351 98.6319 6.40339C98.5365 6.17169 98.3962 5.96117 98.219 5.78399C98.0419 5.60681 97.8313 5.46649 97.5996 5.37111C97.3679 5.27573 97.1196 5.22719 96.8691 5.22829H96.8718Z" fill="white"/>
<path d="M98.22 11.5947H95.52V28.4315H98.22V11.5947Z" fill="white"/>
<path d="M47.9583 34.5239C47.7041 34.2946 47.2704 34.1152 46.6638 33.9913C46.1202 33.8803 45.7392 33.7786 45.5367 33.688C45.3342 33.5974 45.2436 33.468 45.2436 33.284C45.2436 33.0796 45.349 32.9196 45.5663 32.7939C45.7999 32.6631 46.0642 32.5971 46.3319 32.6025C46.8867 32.6025 47.4942 32.8096 48.1303 33.2174L48.1719 33.2442V32.437L48.1581 32.4287C47.6078 32.0911 46.9773 31.9066 46.3319 31.8942C45.8694 31.8854 45.4147 32.0141 45.0254 32.2641C44.8497 32.3689 44.7046 32.518 44.6046 32.6965C44.5046 32.875 44.4533 33.0766 44.4558 33.2812C44.4509 33.4496 44.4892 33.6164 44.5671 33.7658C44.6449 33.9152 44.7597 34.0422 44.9006 34.1346C45.1909 34.3362 45.6467 34.5045 46.2552 34.6339C46.7387 34.7393 47.0873 34.8522 47.2769 34.9714C47.4664 35.0907 47.5607 35.2266 47.5607 35.3958C47.5663 35.5882 47.4757 35.7463 47.2834 35.8776C47.091 36.0089 46.821 36.0754 46.4891 36.0754C46.1035 36.0761 45.7223 35.9928 45.3721 35.8313C45.0511 35.6891 44.7585 35.4898 44.5085 35.2433L44.4632 35.1961V36.1087L44.4743 36.1161C45.1363 36.559 45.8169 36.7837 46.4974 36.7837C47.0263 36.7837 47.4683 36.6617 47.8132 36.4213C47.9813 36.3074 48.1177 36.1525 48.2094 35.9714C48.3011 35.7902 48.3452 35.5886 48.3374 35.3857C48.3402 35.2232 48.3077 35.062 48.2423 34.9133C48.1768 34.7645 48.08 34.6317 47.9583 34.5239Z" fill="white"/>
<path d="M60.3133 36.0256C60.0711 35.9045 59.9435 35.6557 59.9435 35.2933L59.9518 32.7542H61.4737V32.0459H59.9564V30.7727H59.1594V32.0459H58.1866V32.7542H59.1594L59.151 35.3016C59.151 35.9488 59.3609 36.4112 59.7743 36.6608C60.0378 36.8116 60.338 36.8865 60.6416 36.8772C60.9206 36.873 61.198 36.8339 61.4673 36.7607H61.4867V35.9784L61.4525 35.9886C60.943 36.1347 60.5593 36.1486 60.3133 36.0256Z" fill="white"/>
<path d="M74.6675 35.1381C74.6717 35.4603 74.5507 35.7716 74.3299 36.0064C74.1091 36.2411 73.8059 36.381 73.484 36.3965H73.4202C73.0104 36.3963 72.6174 36.2335 72.3276 35.9438C72.0377 35.6541 71.8747 35.2612 71.8742 34.8515C71.8742 34.8283 71.8742 34.8052 71.8742 34.7803C71.8742 34.7553 71.8742 34.7155 71.8742 34.6822V32.0452H71.0688V34.9032C71.0688 35.4987 71.2676 35.9795 71.6615 36.3337C72.0477 36.6855 72.5538 36.8764 73.0762 36.8672C73.4197 36.874 73.7584 36.7853 74.0545 36.6111C74.298 36.4664 74.5075 36.2709 74.6684 36.0378V36.7904H75.4747V32.0479H74.6684L74.6675 35.1381Z" fill="white"/>
<path d="M88.3448 32.8419C88.166 32.5848 87.9298 32.3727 87.655 32.2224C87.3434 32.0518 86.9932 31.964 86.6379 31.9672C86.3225 31.9626 86.0095 32.0239 85.7191 32.1471C85.4287 32.2704 85.1672 32.4528 84.9514 32.6829C84.5044 33.1479 84.2548 33.7679 84.2548 34.4129C84.2548 35.0579 84.5044 35.6779 84.9514 36.1429C85.1658 36.3744 85.4263 36.5584 85.7162 36.6833C86.006 36.8081 86.3187 36.871 86.6342 36.8678C86.9901 36.871 87.3406 36.7814 87.6513 36.608C87.9244 36.4565 88.1601 36.2458 88.3411 35.9913V36.7901H89.1465V30.5442H88.3411L88.3448 32.8419ZM87.8964 33.2118C88.2133 33.5325 88.391 33.9652 88.391 34.4161C88.391 34.867 88.2133 35.2998 87.8964 35.6205C87.743 35.7822 87.5578 35.9104 87.3526 35.9973C87.1474 36.0842 86.9264 36.1278 86.7036 36.1253C86.4816 36.1293 86.2613 36.0868 86.0567 36.0007C85.8521 35.9145 85.6677 35.7866 85.5154 35.6251C85.2035 35.2999 85.0294 34.8667 85.0294 34.4161C85.0294 33.9655 85.2035 33.5324 85.5154 33.2072C85.6679 33.0474 85.8517 32.9209 86.0554 32.8356C86.259 32.7503 86.4782 32.7081 86.6989 32.7115C86.9222 32.7078 87.1438 32.7502 87.3498 32.8361C87.5559 32.922 87.7419 33.0496 87.8964 33.2109V33.2118Z" fill="white"/>
<path d="M100.138 30.2502C99.9906 30.2502 99.8495 30.3087 99.7454 30.4127C99.6414 30.5168 99.5829 30.6579 99.5829 30.805C99.5816 30.8778 99.5954 30.95 99.6234 31.0172C99.6514 31.0843 99.693 31.145 99.7457 31.1952C99.8521 31.2966 99.9935 31.3532 100.14 31.3532C100.287 31.3532 100.429 31.2966 100.535 31.1952C100.588 31.1451 100.63 31.0845 100.658 31.0173C100.686 30.9501 100.7 30.8778 100.698 30.805C100.698 30.6579 100.64 30.5168 100.536 30.4127C100.432 30.3087 100.29 30.2502 100.143 30.2502H100.138Z" fill="white"/>
<path d="M100.541 32.0471H99.7345V36.7896H100.541V32.0471Z" fill="white"/>
<path d="M115.29 32.6869C115.065 32.4595 114.797 32.279 114.502 32.1558C114.206 32.0327 113.889 31.9692 113.57 31.9692C113.25 31.9692 112.933 32.0327 112.638 32.1558C112.342 32.279 112.074 32.4595 111.849 32.6869C111.396 33.1482 111.143 33.7687 111.143 34.415C111.143 35.0614 111.396 35.6819 111.849 36.1432C112.074 36.3713 112.342 36.5525 112.637 36.6762C112.932 36.7999 113.249 36.8636 113.57 36.8636C113.89 36.8636 114.207 36.7999 114.502 36.6762C114.797 36.5525 115.065 36.3713 115.29 36.1432C115.745 35.6838 116 35.0634 116 34.4169C116 33.7703 115.745 33.1499 115.29 32.6906V32.6869ZM115.239 34.4086C115.243 34.6311 115.202 34.8521 115.119 35.0586C115.036 35.265 114.912 35.4527 114.755 35.6106C114.601 35.7676 114.417 35.8924 114.214 35.9777C114.011 36.063 113.793 36.1071 113.572 36.1076C113.352 36.108 113.134 36.0647 112.93 35.9802C112.727 35.8957 112.542 35.7716 112.387 35.6152C112.078 35.2908 111.905 34.8595 111.905 34.4109C111.905 33.9623 112.078 33.531 112.387 33.2065C112.542 33.0496 112.725 32.925 112.928 32.84C113.131 32.7549 113.349 32.7111 113.569 32.7111C113.789 32.7111 114.007 32.7549 114.21 32.84C114.413 32.925 114.597 33.0496 114.751 33.2065C114.908 33.364 115.033 33.5515 115.117 33.758C115.201 33.9645 115.242 34.1857 115.239 34.4086Z" fill="white"/>
</svg>
